<svg xmlns="http://www.w3.org/2000/svg" viewBox="0 0 48 48">
    <style>g { visibility: hidden } g:target { visibility: visible }</style>
    <g id="menu-close"><path fill="none" stroke="#bec9d3" stroke-linecap="round" stroke-linejoin="round" stroke-miterlimit="10" stroke-width="2" d="M38 10L10 38m28 0L10 10"/></g>
    <g id="document-new"><path fill="#E6E6E6" d="M41 47H7a2 2 0 0 1-2-2V3c0-1.1.9-2 2-2h24l12 12v32a2 2 0 0 1-2 2z"/><path fill="#B3B3B3" d="M31 1v10c0 1.1.9 2 2 2h10L31 1z"/><circle cx="24" cy="24" r="10" fill="#72C472"/><path fill="#FFF" d="M28 23h-3v-3a1 1 0 0 0-2 0v3h-3a1 1 0 0 0 0 2h3v3a1 1 0 0 0 2 0v-3h3a1 1 0 0 0 0-2z"/></g>
    <g id="menu-save"><path fill="#3c81f0" d="M24 1a23 23 0 1 0 0 46 23 23 0 0 0 0-46zm12.7 15.7l-16 16c-.2.2-.4.3-.7.3s-.5-.1-.7-.3l-8-8c-.4-.4-.4-1 0-1.4s1-.4 1.4 0l7.3 7.3 15.3-15.3c.4-.4 1-.4 1.4 0s.4 1 0 1.4z"/></g>
    <g id="loading"><circle cx="24" cy="24" r="24" fill="#757575" class="nc-icon-wrapper" opacity=".9" transform="translate(5.8 5.8) scale(.7597)"/></g>
    <g id="arrow"><path fill="#757575" d="M14 47.8l-3-3L32 24 11 3.1l3-3 22.3 22.4c.9.9.9 2.1 0 3L14 47.8z"/></g>
    <g id="search" fill="none" stroke="#757575" stroke-linecap="round" stroke-linejoin="round" stroke-miterlimit="10" stroke-width="3"><path d="M46.9 46.9L34.3 34.3"/><circle cx="20.1" cy="20.1" r="18.9"/></g>
    <g id="edit"><path fill="#757575" d="M43.7 8.6l-4.3-4.3a5 5 0 0 0-3.5-1.5c-1.3 0-2.6.5-3.5 1.5L5.1 31.5l-.2.3v.2l-2 12c-.1.3.1.6.3.9.2.2.4.3.7.3h.2l12-2h.2l.3-.2 27.2-27.2c1.9-2 1.9-5.2-.1-7.2zM9.3 42.2l-3.6-3.6.7-4.4 7.3 7.3-4.4.7zm21.4-23.5L14.4 35a1 1 0 0 1-.7.3 1 1 0 0 1-.7-.3 1 1 0 0 1 0-1.4l16.3-16.3c.4-.4 1-.4 1.4 0s.4 1 0 1.4zm7.1.1l-8.6-8.6 2.6-2.6 8.6 8.6-2.6 2.6z"/></g>
    <g id="save" fill="#757575"><path d="M2 35a1 1 0 0 0-1 1v10c0 .6.4 1 1 1h44c.6 0 1-.4 1-1V36a1 1 0 0 0-2 0v9H3v-9c0-.6-.4-1-1-1z" /><path d="M35 23h-9V2c0-.6-.4-1-1-1h-2a1 1 0 0 0-1 1v21h-9a1 1 0 0 0-.8 1.6l11 14a1 1 0 0 0 1.6 0l11-14A1 1 0 0 0 35 23z"/></g>
</svg>